<svg class="img-fluid" id="outputsvg" xmlns="http://www.w3.org/2000/svg" style="transform: none; ; cursor: move;" width="1006" height="792" viewBox="0 0 10060 7920"><g id="lQbeFbGgwxyAsAfAku7J3m" fill="rgb(249,250,251)" style="transform: none;"><g><path  id="poPV4KaWR" d="M2458 7909 c-10 -5 -28 -42 -40 -82 -20 -64 -23 -93 -23 -257 0 -158 3 -190 18 -217 14 -27 23 -33 52 -33 l34 0 -15 -51 c-9 -29 -26 -68 -39 -88 -13 -20 -26 -51 -30 -68 -11 -52 -96 -172 -176 -248 -203 -191 -344 -321 -368 -340 -15 -11 -61 -54 -102 -95 -94 -93 -147 -140 -159 -140 -5 0 -25 -13 -43 -30 -19 -16 -54 -38 -79 -49 -65 -27 -118 -95 -118 -150 0 -28 5 -44 16 -48 13 -5 13 -8 -4 -23 -17 -16 -40 -61 -136 -261 -46 -96 -60 -213 -30 -241 11 -9 34 -18 52 -20 l33 -3 -30 -32 c-16 -18 -36 -33 -43 -33 -17 0 -78 116 -78 148 0 21 -4 22 -79 22 -59 0 -82 4 -92 16 -36 44 -60 47 -306 39 -129 -4 -255 -13 -281 -19 -46 -12 -47 -13 -50 -54 -3 -46 -17 -39 138 -78 36 -9 82 -25 102 -35 21 -11 55 -23 75 -28 l38 -9 -43 -1 c-24 -1 -59 7 -80 18 -20 10 -81 31 -136 45 -58 16 -110 36 -126 50 -33 27 -143 51 -189 41 -38 -8 -51 -30 -51 -84 0 -33 7 -49 38 -83 44 -50 41 -47 97 -123 25 -33 45 -63 45 -67 0 -4 21 -38 46 -75 25 -37 55 -83 67 -102 12 -18 38 -52 58 -75 19 -22 53 -65 74 -95 21 -29 58 -76 82 -104 24 -28 43 -58 43 -66 0 -9 16 -41 36 -71 35 -51 63 -96 126 -195 14 -22 28 -49 32 -60 3 -11 33 -58 66 -105 33 -47 75 -107 93 -135 19 -27 41 -56 50 -64 10 -7 17 -19 17 -25 0 -7 15 -30 33 -52 18 -21 45 -57 60 -79 15 -22 46 -65 68 -95 22 -30 52 -73 67 -95 15 -22 40 -52 55 -68 15 -15 33 -40 40 -55 15 -35 40 -70 97 -137 25 -29 63 -76 85 -104 22 -29 58 -74 80 -101 49 -60 89 -114 118 -160 19 -30 29 -35 64 -38 71 -5 78 3 101 135 12 65 26 192 32 283 6 91 17 237 25 325 8 88 19 237 25 330 18 302 31 428 56 550 31 153 42 318 24 340 -31 38 -111 66 -243 85 -72 11 -154 30 -182 41 -27 12 -80 25 -116 30 -62 8 -107 21 -214 63 -30 11 -34 15 -17 16 13 0 44 -9 69 -21 29 -13 82 -24 137 -29 58 -5 124 -20 181 -39 55 -19 129 -35 190 -42 57 -6 117 -19 141 -30 56 -26 152 -26 187 1 14 11 45 28 68 39 24 11 55 30 69 43 14 13 40 30 58 37 47 20 62 47 62 111 0 51 -3 59 -33 86 -22 19 -40 49 -52 84 -10 30 -27 68 -38 83 -16 24 -47 169 -47 225 0 7 -13 12 -29 12 l-30 0 17 50 c9 27 27 57 39 65 20 14 23 14 33 -5 6 -11 16 -76 21 -143 6 -67 18 -138 26 -157 8 -19 23 -68 33 -108 10 -41 23 -79 29 -85 7 -7 42 -12 84 -12 l72 0 5 30 c5 28 6 27 19 -20 16 -65 26 -75 70 -75 l36 -1 -49 -19 c-26 -10 -56 -26 -65 -34 -9 -8 -37 -24 -62 -35 -25 -11 -53 -29 -63 -40 -10 -11 -39 -25 -66 -31 -27 -7 -58 -22 -71 -37 -13 -14 -47 -35 -76 -48 -28 -13 -59 -31 -70 -42 -10 -10 -33 -29 -51 -43 l-32 -26 -11 -204 c-7 -135 -17 -231 -29 -280 -27 -109 -39 -221 -46 -425 -4 -115 -13 -216 -26 -279 -19 -99 -37 -368 -38 -567 0 -123 8 -142 60 -137 32 3 37 8 60 63 29 69 70 141 117 206 18 26 33 51 33 56 0 6 13 28 30 51 16 22 37 56 47 75 19 36 59 99 111 177 17 27 32 54 32 59 0 5 15 31 34 58 18 26 36 58 40 70 4 13 23 45 42 72 19 28 34 54 34 59 0 5 15 29 33 53 17 24 41 60 52 81 27 49 93 145 130 189 16 20 43 58 58 85 16 27 43 74 62 104 19 30 46 78 60 105 14 28 41 75 59 105 19 30 47 80 63 110 15 30 43 75 61 99 17 24 32 49 32 55 0 6 16 36 36 66 20 30 53 80 73 110 20 30 45 74 55 98 10 23 23 42 28 42 5 0 22 30 39 68 17 37 40 77 52 90 19 20 22 35 22 105 l0 82 -64 3 c-50 2 -68 -1 -84 -15 -20 -18 -20 -18 -2 10 10 15 26 32 36 38 14 7 19 21 19 54 0 43 -1 44 -36 51 -20 4 -66 4 -102 0 -159 -15 -464 -35 -539 -36 -56 0 -99 -6 -133 -19 -27 -11 -50 -15 -50 -9 0 5 9 44 19 86 11 43 25 107 31 143 14 80 38 122 82 145 40 21 129 98 145 128 8 14 12 74 13 179 l0 159 63 65 c34 36 81 74 104 85 24 10 47 28 53 38 6 11 24 27 40 35 16 8 41 27 55 43 119 124 135 136 150 112 10 -17 -41 -77 -89 -105 -24 -14 -47 -32 -50 -40 -3 -8 -20 -22 -38 -31 -18 -9 -51 -32 -72 -50 -22 -19 -46 -34 -53 -34 -8 0 -36 -21 -64 -47 -47 -44 -50 -49 -47 -92 l3 -46 70 -18 c54 -14 96 -17 185 -13 63 2 126 7 140 11 14 4 -2 -8 -35 -26 -71 -39 -158 -45 -212 -16 -19 10 -54 17 -88 17 -50 0 -56 -2 -65 -26 -11 -29 -13 -100 -4 -167 7 -46 7 -46 63 -63 31 -8 70 -24 88 -35 17 -11 71 -28 120 -39 48 -10 108 -26 133 -35 27 -9 106 -20 193 -25 181 -11 196 -19 130 -66 -57 -40 -86 -42 -192 -14 -41 11 -101 20 -133 20 l-58 0 0 -62 c1 -63 1 -63 48 -100 l47 -38 147 0 c84 0 149 -4 153 -10 3 -5 -3 -27 -15 -49 -11 -22 -20 -57 -20 -77 0 -24 -9 -49 -26 -71 -14 -18 -33 -55 -41 -81 -9 -26 -26 -63 -37 -82 -12 -19 -26 -46 -32 -60 -18 -41 -44 -93 -59 -120 -22 -37 -19 -142 4 -189 24 -46 102 -125 153 -154 21 -11 38 -26 38 -33 0 -7 14 -22 30 -34 17 -12 40 -38 51 -58 11 -21 29 -52 41 -70 14 -23 24 -66 34 -148 14 -126 20 -138 99 -214 72 -69 94 -111 110 -204 15 -97 30 -128 82 -177 37 -35 178 -131 238 -162 36 -18 129 -78 167 -107 14 -11 49 -31 77 -44 27 -12 56 -27 63 -33 7 -6 36 -18 63 -29 28 -10 72 -33 100 -51 27 -18 54 -33 59 -33 6 0 78 -33 160 -74 83 -40 176 -82 206 -91 30 -10 71 -28 90 -41 19 -13 55 -28 80 -33 54 -12 197 -83 259 -129 34 -24 54 -32 87 -32 50 0 50 -1 57 120 3 41 13 95 22 120 9 25 29 80 45 123 15 43 39 91 54 106 14 15 26 32 26 38 0 6 9 30 20 54 12 28 20 66 20 104 0 33 7 119 16 190 16 128 17 130 54 170 21 22 48 65 60 95 12 29 32 65 46 78 13 14 24 31 24 38 0 7 13 28 29 46 15 18 36 49 46 68 10 19 30 51 45 70 15 19 31 46 35 60 4 14 19 45 33 70 15 25 36 66 48 91 12 26 27 50 33 53 6 4 21 26 32 49 12 23 33 56 48 74 14 17 40 50 56 73 43 61 202 199 280 243 44 26 91 43 143 52 42 8 95 19 116 24 39 10 151 -4 251 -31 22 -5 61 -12 87 -15 40 -4 48 -2 58 17 20 37 8 129 -23 175 -14 22 -33 69 -41 104 -8 35 -24 73 -34 85 -11 11 -32 44 -46 73 -14 29 -35 57 -45 63 -11 5 -23 20 -27 32 -3 13 -22 44 -40 69 -42 58 -45 111 -9 184 16 34 24 67 25 103 0 53 0 53 -42 71 -24 10 -60 33 -82 50 -21 17 -42 31 -46 31 -5 0 -27 16 -50 35 -23 19 -54 38 -69 41 -14 4 -37 17 -51 30 -14 12 -52 33 -85 45 -33 12 -70 30 -83 40 -13 10 -36 21 -52 24 -17 4 -32 11 -35 16 -4 5 -28 9 -54 9 -58 0 -96 -31 -108 -89 -5 -20 -8 -156 -8 -303 0 -147 -4 -260 -8 -253 -4 8 -9 177 -10 375 -3 392 -1 380 -59 380 -14 0 -55 15 -90 33 -35 19 -80 37 -102 40 -21 3 -67 20 -103 37 -36 16 -102 39 -146 50 -44 11 -94 29 -111 39 -17 11 -55 29 -85 41 -30 11 -65 30 -79 40 -28 23 -94 27 -110 8 -6 -7 -15 -29 -20 -48 -9 -32 -10 -29 -11 37 -1 95 -5 103 -51 103 -25 0 -62 13 -104 35 -52 28 -78 35 -121 35 -51 0 -55 -2 -71 -32 -9 -18 -25 -42 -35 -53 -10 -11 -28 -43 -40 -70 -12 -28 -32 -64 -45 -81 -13 -18 -34 -56 -47 -85 -13 -30 -31 -60 -40 -68 -9 -7 -22 -32 -28 -54 -6 -22 -21 -54 -33 -71 -33 -45 -76 -183 -76 -243 0 -28 7 -85 15 -125 9 -40 22 -156 30 -258 8 -102 19 -201 25 -220 5 -19 17 -117 25 -217 15 -179 18 -202 49 -313 18 -65 35 -180 46 -305 5 -49 16 -175 26 -280 l17 -190 -29 -206 -29 -207 -2 411 c-2 456 -11 593 -49 735 -17 68 -28 143 -34 247 -6 105 -15 171 -30 219 -12 38 -26 108 -30 155 -12 120 -36 244 -60 313 -24 70 -40 169 -40 256 0 59 2 65 34 95 19 18 42 52 52 77 9 25 25 54 35 65 10 11 27 43 39 70 12 28 30 59 40 70 10 11 26 40 36 65 9 25 30 63 46 84 15 22 28 46 28 54 0 7 14 33 30 56 29 39 31 48 28 112 l-3 69 -45 14 c-25 7 -67 22 -95 34 -27 11 -88 33 -134 48 -47 16 -87 33 -91 38 -11 18 -61 31 -123 31 -50 1 -58 3 -43 12 32 18 103 10 173 -20 38 -16 97 -33 133 -37 36 -3 95 -20 132 -36 36 -16 81 -29 100 -29 46 0 108 -19 141 -42 16 -12 57 -29 90 -40 34 -10 78 -29 97 -42 19 -13 52 -28 72 -35 20 -7 54 -24 74 -37 20 -14 62 -34 93 -46 31 -11 70 -26 86 -33 17 -8 51 -19 76 -24 25 -6 70 -22 100 -35 30 -14 88 -33 129 -42 41 -9 78 -23 83 -30 7 -13 93 -74 104 -74 3 0 31 -15 62 -34 31 -18 74 -39 96 -46 22 -7 52 -21 67 -32 15 -10 44 -25 65 -32 21 -7 60 -28 88 -45 27 -17 53 -31 58 -31 4 0 27 -13 50 -29 23 -15 62 -38 87 -50 95 -46 150 -77 172 -97 13 -12 34 -27 48 -34 13 -7 52 -35 86 -61 52 -42 68 -49 105 -49 66 0 113 17 166 58 26 21 57 41 68 45 19 6 19 6 1 -6 -11 -7 -36 -26 -55 -43 -20 -17 -46 -34 -58 -38 -25 -8 -123 -99 -123 -114 0 -5 -11 -34 -25 -64 -16 -34 -25 -71 -25 -103 0 -43 6 -59 45 -115 118 -172 149 -225 170 -290 10 -30 31 -80 47 -110 18 -35 28 -70 28 -98 0 -53 71 -262 106 -313 14 -20 31 -59 38 -87 8 -27 25 -72 40 -98 14 -27 32 -74 40 -104 8 -30 26 -81 40 -112 36 -77 60 -256 45 -330 -17 -77 -6 -222 20 -281 12 -26 29 -87 37 -135 8 -48 21 -107 29 -132 19 -62 33 -165 40 -300 4 -63 15 -179 27 -258 21 -151 19 -195 -19 -331 -14 -54 -91 -174 -117 -184 -40 -15 -59 -133 -31 -187 13 -25 22 -30 53 -30 59 1 195 44 237 76 56 42 113 119 125 167 6 23 26 74 45 112 20 39 35 79 35 91 0 11 15 46 34 77 19 31 42 79 51 107 29 87 31 56 4 -51 -5 -20 -20 -53 -34 -72 -13 -20 -29 -55 -35 -76 -6 -22 -22 -64 -35 -93 -27 -58 -32 -107 -13 -126 7 -7 35 -12 64 -12 41 0 67 8 124 38 119 63 192 127 243 212 42 70 104 236 127 342 12 57 129 240 201 313 16 17 29 35 29 39 0 5 15 29 34 55 18 25 37 57 41 71 4 14 20 43 36 65 29 42 90 212 108 305 6 30 20 82 31 115 27 83 60 368 60 522 0 183 -46 640 -72 712 -13 37 -27 150 -48 387 -11 121 -22 227 -24 235 -7 18 -21 155 -41 380 -8 96 -22 200 -31 230 -9 30 -18 86 -20 124 -14 285 -28 438 -44 500 -10 39 -24 113 -30 165 -7 52 -18 114 -25 137 -14 45 -4 68 14 34 6 -10 19 -59 30 -107 11 -49 31 -116 44 -149 13 -33 32 -112 41 -175 10 -63 26 -147 36 -185 11 -39 22 -108 25 -155 4 -47 19 -159 35 -250 39 -224 39 -221 50 -420 6 -96 20 -238 31 -315 11 -77 24 -223 29 -325 14 -278 21 -392 26 -418 4 -20 10 -23 41 -20 33 3 39 7 52 43 7 22 25 67 38 100 20 50 26 95 38 265 16 226 25 282 55 339 11 22 24 61 30 86 6 26 26 80 45 119 19 39 39 94 44 122 6 29 22 69 36 89 14 21 25 50 25 64 0 15 14 48 30 74 17 26 30 52 30 56 0 5 18 69 41 143 39 127 41 141 49 323 4 105 15 231 23 280 31 180 36 233 43 405 4 115 2 184 -5 203 l-11 27 -184 0 c-101 0 -191 -3 -200 -6 -9 -3 -17 -18 -17 -33 -1 -25 -2 -25 -8 4 l-6 30 -883 2 -883 3 -9 -26 c-13 -34 -13 -738 0 -880 5 -60 12 -134 14 -164 l5 -55 -20 55 c-22 61 -25 120 -37 735 l-7 330 -322 3 -323 2 0 -52 c0 -36 7 -64 21 -88 l21 -35 -22 20 c-12 11 -40 46 -61 77 -22 32 -48 62 -59 68 -13 7 -384 9 -1160 8 -1090 -3 -1142 -4 -1152 -21 -19 -35 -72 -89 -95 -98 -13 -5 -50 -13 -82 -18 -33 -5 -88 -23 -123 -40 -35 -16 -80 -33 -101 -37 -46 -8 -96 -64 -98 -109 l-2 -30 -4 28 c-3 19 4 42 19 65 39 61 48 90 48 156 0 109 36 101 -452 104 -233 2 -438 0 -455 -3 -29 -5 -33 -10 -33 -39 0 -31 4 -35 54 -56 30 -12 63 -31 73 -42 10 -11 38 -30 63 -43 25 -13 54 -33 65 -45 11 -12 32 -28 47 -36 17 -9 28 -23 28 -35 0 -12 13 -28 35 -40 19 -12 35 -25 35 -30 0 -5 32 -41 71 -80 72 -70 128 -142 105 -133 -6 2 -20 20 -30 39 -11 19 -27 37 -37 40 -10 4 -26 19 -36 36 -10 16 -25 32 -35 35 -10 3 -27 18 -39 35 -11 16 -34 36 -50 44 -16 9 -29 22 -29 30 0 14 -20 27 -142 91 -33 18 -70 41 -82 53 -12 11 -47 28 -77 37 -30 9 -70 25 -89 37 -28 17 -56 22 -144 25 l-109 4 -76 -38 c-42 -22 -82 -46 -90 -54 -9 -11 -9 -8 1 10 9 13 28 32 44 41 26 14 29 21 29 65 l0 49 -225 2 c-139 2 -232 -1 -242 -8z m3517 -141 c22 -16 55 -39 74 -51 18 -12 59 -39 90 -59 31 -21 79 -49 108 -62 28 -14 57 -33 65 -44 7 -10 28 -27 46 -36 18 -9 35 -23 38 -31 3 -7 24 -26 47 -41 23 -16 59 -42 79 -59 20 -16 58 -46 83 -65 25 -19 63 -49 83 -67 20 -17 51 -43 67 -56 49 -41 22 -41 -31 0 -27 21 -61 44 -76 52 -15 7 -43 29 -62 47 -20 19 -40 34 -45 34 -4 0 -37 27 -72 61 -35 33 -86 76 -114 95 -27 19 -66 45 -85 58 -19 13 -46 35 -60 48 -13 12 -38 30 -55 39 -69 37 -152 91 -181 118 -17 16 -41 32 -53 36 -11 3 -21 10 -21 15 0 14 30 1 75 -32z m1240 -98 c16 -46 12 -53 -8 -12 -18 35 -32 95 -17 70 6 -10 17 -36 25 -58z m-4405 47 c0 -2 -12 -14 -27 -28 -24 -22 -24 -13 0 19 8 11 27 17 27 9z m4464 -148 c9 -22 16 -45 16 -52 0 -7 13 -39 29 -72 16 -33 35 -89 41 -125 6 -36 25 -95 41 -132 16 -36 29 -77 29 -91 0 -13 12 -69 26 -123 39 -149 41 -163 48 -249 l5 -80 -20 80 c-11 44 -28 107 -39 141 -10 34 -24 108 -30 165 -8 68 -20 122 -35 155 -13 28 -32 82 -41 120 -9 38 -28 90 -41 116 -13 26 -28 71 -34 100 -6 29 -17 63 -25 75 -12 19 -12 22 0 17 8 -3 22 -23 30 -45z m1160 35 c11 -11 16 -34 15 -77 l0 -62 -13 42 c-17 52 -28 113 -22 113 2 0 12 -7 20 -16z m-4064 -209 c23 -28 67 -45 117 -45 42 0 46 -2 32 -15 -12 -13 -21 -13 -48 -4 -46 16 -105 7 -188 -30 -39 -17 -80 -31 -90 -31 -10 1 3 10 29 21 53 24 78 64 78 124 l0 36 28 -20 c16 -11 35 -27 42 -36z m5425 -64 c-8 -17 -17 -31 -18 -31 -2 0 4 35 12 78 16 77 16 77 19 30 2 -29 -3 -59 -13 -77z m-5748 -91 c22 0 54 7 69 15 16 8 36 15 44 15 8 -1 0 -7 -18 -15 -19 -8 -47 -26 -64 -40 -16 -14 -36 -25 -44 -25 -8 0 -31 -16 -53 -35 -21 -19 -42 -35 -47 -35 -5 0 2 7 15 16 20 15 22 23 19 80 l-3 63 21 -20 c13 -12 34 -19 61 -19z m4435 -55 c13 -19 40 -44 61 -56 21 -11 37 -22 35 -24 -2 -2 -39 3 -83 11 -162 28 -259 9 -304 -60 -27 -40 -46 -32 -30 13 11 28 82 105 114 124 11 7 54 14 95 18 41 3 78 6 82 7 4 1 18 -14 30 -33z m-1656 -56 c29 -32 29 -32 2 -15 -14 10 -29 24 -32 32 -8 20 -3 18 30 -17z m-2355 -9 c4 0 24 -24 43 -54 25 -39 44 -57 69 -65 59 -20 79 -51 112 -182 18 -70 17 -89 -10 -234 -26 -136 -17 -624 15 -860 23 -162 23 -180 12 -390 -7 -136 -17 -241 -27 -275 -8 -30 -20 -116 -26 -190 -8 -110 -15 -144 -35 -183 -13 -26 -31 -75 -38 -108 -15 -63 -33 -98 -23 -44 3 17 9 50 13 75 3 25 18 74 31 110 23 60 26 85 34 310 6 159 6 303 -1 410 -6 91 -12 242 -14 337 -3 95 -7 177 -11 183 -3 5 -23 10 -44 10 -35 0 -39 -3 -49 -37 -6 -21 -28 -61 -49 -90 -21 -29 -58 -82 -83 -119 -44 -64 -68 -94 -150 -182 -22 -23 -40 -48 -40 -55 0 -36 -173 -147 -232 -149 -15 -1 -50 14 -80 33 l-53 34 110 6 c125 6 134 9 164 49 12 17 28 30 37 30 8 0 24 15 35 34 11 19 26 37 34 40 8 3 22 20 31 38 19 37 42 57 64 58 22 0 86 84 106 138 10 26 29 64 42 86 32 51 52 185 52 347 0 136 1 139 54 139 43 0 58 32 68 142 12 128 6 355 -11 386 -9 17 -21 22 -51 22 -35 0 -39 -3 -49 -32 -5 -18 -13 -53 -17 -78 -3 -24 -22 -73 -40 -108 -19 -35 -34 -71 -34 -80 -1 -9 -7 -28 -16 -42 -11 -19 -14 -20 -10 -5 3 11 8 38 12 60 4 22 17 60 29 85 31 62 45 136 45 235 0 93 -9 127 -43 157 -18 16 -19 19 -4 14 10 -3 23 -6 28 -6z m2506 -121 c20 -25 11 -19 -34 20 -35 30 -63 55 -63 57 0 10 73 -49 97 -77z m1742 28 c6 -8 30 -22 53 -32 24 -11 60 -34 81 -52 20 -18 42 -33 47 -33 6 0 30 -18 55 -41 31 -29 46 -52 51 -78 4 -20 18 -56 33 -81 l26 -45 0 -500 c0 -275 -4 -552 -8 -616 l-8 -115 28 -29 c15 -16 22 -25 14 -20 -7 4 -79 11 -160 16 -95 5 -181 16 -246 32 -55 13 -135 32 -177 41 -42 10 -82 23 -88 31 -8 9 6 8 50 -6 75 -23 196 -26 219 -5 14 12 25 11 86 -10 92 -31 182 -32 219 -3 l26 20 0 317 c-1 304 -23 908 -36 964 -6 28 -67 89 -120 121 -65 39 -185 137 -168 137 6 0 17 -6 23 -13z m-4996 -140 c-16 -17 -38 -43 -48 -57 -9 -14 -15 -19 -13 -12 5 18 82 111 87 106 3 -3 -9 -19 -26 -37z m4907 -55 c0 -7 10 -36 21 -63 l21 -49 -21 -49 c-11 -27 -21 -58 -21 -69 0 -21 -93 -92 -120 -92 -8 0 -42 -9 -74 -20 -46 -16 -85 -20 -175 -20 -64 1 -136 5 -161 10 -25 5 -111 12 -191 16 -140 7 -147 6 -210 -18 -35 -14 -77 -28 -94 -32 -29 -5 -29 -5 -5 6 14 6 52 24 86 40 72 35 176 58 199 46 9 -5 147 -8 308 -6 322 3 318 3 391 71 36 34 36 35 36 118 0 46 -5 102 -10 124 -8 36 -7 38 6 21 8 -11 14 -26 14 -34z m938 -144 c-8 -12 -21 -24 -29 -26 -8 -3 -3 7 10 22 30 32 39 34 19 4z m-6013 -16 c-11 -9 -31 -28 -44 -42 -20 -21 -20 -19 3 12 24 33 39 45 56 47 3 0 -4 -7 -15 -17z m-100 -88 c-16 -14 -39 -30 -50 -36 -19 -10 -19 -10 -5 7 14 18 70 55 80 55 3 -1 -8 -12 -25 -26z m2475 -66 c0 -9 13 -55 29 -101 17 -51 33 -128 40 -189 6 -57 16 -149 21 -205 6 -56 15 -116 21 -135 6 -18 13 -112 16 -208 5 -160 3 -188 -22 -335 -15 -88 -29 -162 -31 -165 -3 -2 -2 99 1 225 3 127 1 370 -4 540 -10 317 -12 336 -59 465 -20 57 -37 164 -21 139 5 -8 9 -22 9 -31z m2816 -134 c7 -40 -2 -204 -16 -274 -5 -25 -9 -151 -10 -280 0 -177 -3 -230 -12 -216 -12 20 -5 726 8 779 9 38 22 34 30 -9z m-256 -84 c-8 -5 -38 -16 -66 -25 -28 -8 -64 -22 -80 -30 -20 -10 -60 -15 -129 -15 -55 0 -152 -5 -215 -10 -63 -5 -118 -6 -123 -1 -4 4 74 11 174 15 133 6 203 13 258 28 179 48 205 53 181 38z m-6769 -208 c-5 -16 -15 -41 -24 -58 -8 -16 -22 -56 -32 -89 -9 -33 -25 -74 -35 -90 -10 -17 -24 -62 -30 -100 -7 -39 -24 -97 -38 -130 -19 -45 -26 -84 -30 -157 l-4 -98 39 0 c37 0 41 3 81 65 24 35 54 94 67 131 25 69 41 97 31 54 -4 -14 -10 -58 -15 -99 -7 -50 -16 -83 -30 -100 -12 -14 -29 -40 -38 -58 -9 -18 -29 -37 -44 -43 -66 -28 -121 32 -133 141 -10 101 -14 109 -51 109 -34 0 -34 0 -19 28 7 15 14 32 14 38 0 6 8 22 19 35 30 39 61 98 61 119 0 22 33 78 78 130 18 21 39 59 47 85 12 43 67 115 86 115 4 0 4 -13 0 -28z m292 -95 c9 -24 -12 -119 -37 -161 -13 -23 -29 -71 -36 -106 -6 -36 -18 -83 -26 -106 -11 -30 -14 -72 -12 -166 2 -99 0 -124 -9 -116 -9 7 -13 57 -15 162 l-3 151 -58 3 c-44 2 -56 6 -49 15 5 7 16 33 24 58 9 25 32 67 51 92 20 26 38 56 42 67 3 11 12 20 20 20 7 0 24 17 36 38 34 55 62 74 72 49z m5996 -221 c15 -8 34 -22 42 -32 8 -9 28 -25 44 -36 17 -10 24 -18 18 -18 -7 0 -30 15 -51 34 -20 19 -53 41 -72 49 -19 9 -29 16 -22 16 7 1 25 -5 41 -13z m205 -146 c7 0 23 -12 37 -27 17 -19 18 -23 4 -12 -11 9 -33 21 -50 28 -16 7 -41 27 -55 44 l-25 32 38 -32 c21 -18 44 -33 51 -33z m-4960 -24 c-39 -19 -74 -38 -78 -44 -3 -5 -29 -18 -57 -28 -28 -10 -61 -29 -74 -41 -12 -13 -48 -32 -79 -43 -31 -10 -66 -26 -78 -34 -12 -9 -29 -16 -38 -16 -8 0 -3 6 11 14 15 7 36 23 47 34 11 11 37 28 59 37 21 9 49 22 63 30 83 45 229 114 250 118 47 8 45 6 -26 -27z m4783 -131 c20 -8 34 -18 30 -21 -3 -3 -22 4 -44 15 -45 24 -37 27 14 6z m144 -77 c19 -6 50 -22 69 -35 19 -12 46 -23 60 -24 14 0 41 -7 60 -15 35 -14 35 -14 -25 -9 -39 4 -69 12 -85 25 -14 12 -41 27 -60 36 -68 29 -75 33 -64 33 6 1 26 -4 45 -11z m1045 -144 c13 -18 13 -33 0 -112 -8 -50 -19 -108 -25 -129 -20 -78 -41 -201 -50 -308 -11 -112 -26 -241 -62 -510 -17 -128 -24 -157 -50 -198 -16 -27 -29 -52 -29 -57 0 -4 -16 -27 -36 -51 -19 -23 -44 -59 -54 -78 -10 -20 -27 -45 -39 -55 -12 -11 -21 -23 -21 -28 0 -5 -19 -29 -42 -53 -24 -23 -68 -70 -98 -104 -30 -34 -59 -61 -63 -61 -5 0 -27 -16 -50 -35 -22 -19 -45 -35 -51 -35 -15 0 74 89 107 106 15 8 27 22 27 30 0 9 29 44 65 79 36 34 65 67 65 73 0 6 17 31 38 56 71 85 133 180 173 264 17 35 22 75 30 230 10 209 13 236 39 342 10 41 26 142 35 225 9 82 23 180 31 218 8 38 14 101 14 140 0 66 -3 77 -36 127 l-35 55 52 -55 c28 -30 57 -65 65 -76z m-8240 75 c32 -6 75 -20 94 -31 19 -12 55 -27 80 -34 l45 -12 -35 -1 c-19 0 -55 9 -80 21 -25 11 -83 31 -130 44 -90 23 -75 31 26 13z m1051 -39 c-17 -23 -40 -40 -54 -40 -14 0 -53 35 -53 48 0 4 27 7 59 7 51 0 58 -2 48 -15z m2311 -300 c-5 -77 -9 -95 -32 -124 -14 -19 -26 -40 -26 -47 0 -7 -3 -10 -6 -6 -3 3 6 34 20 69 14 35 28 94 32 131 10 97 18 82 12 -23z m1121 -358 c6 -20 15 -87 20 -148 6 -61 19 -135 29 -165 11 -30 27 -103 35 -164 9 -60 18 -119 22 -130 3 -11 -1 -8 -10 7 -8 15 -24 69 -35 120 -10 51 -28 113 -38 138 -11 25 -23 77 -27 115 -4 39 -13 108 -21 154 -10 62 -11 88 -3 98 16 18 17 17 28 -25z m2609 -143 c7 -37 11 -109 11 -160 -1 -52 -4 -83 -6 -69 -2 14 -15 68 -28 120 -22 91 -28 135 -26 190 1 24 1 24 19 5 11 -11 24 -49 30 -86z m-3932 33 c-17 -34 -44 -58 -53 -48 -6 5 54 76 64 76 2 0 -3 -13 -11 -28z m3951 -419 c-2 -21 -4 -4 -4 37 0 41 2 58 4 38 2 -21 2 -55 0 -75z m-2479 -188 c0 -16 -2 -15 -8 5 -11 34 -11 60 0 35 5 -11 8 -29 8 -40z"></path><path id="pq4axokCC" d="M7055 5296 c-12 -9 -40 -15 -72 -16 -106 0 -268 -89 -353 -191 -19 -24 -42 -50 -51 -58 -9 -9 -31 -36 -48 -61 -32 -45 -37 -53 -97 -145 -18 -27 -36 -66 -39 -85 -9 -43 -58 -124 -155 -258 -116 -158 -149 -214 -181 -309 -26 -77 -31 -110 -40 -273 -7 -132 -7 -201 1 -242 9 -49 8 -62 -6 -90 -28 -55 -64 -97 -104 -123 -50 -31 -54 -49 -76 -285 -16 -182 -16 -187 5 -301 11 -63 23 -180 27 -260 6 -127 10 -152 34 -209 15 -36 31 -81 35 -100 4 -19 15 -51 25 -70 18 -37 31 -76 50 -147 11 -42 11 -43 55 -43 39 0 45 3 60 33 9 17 19 61 22 96 4 44 9 58 15 47 10 -19 86 -22 121 -6 18 9 17 7 -3 -7 -45 -32 -127 -118 -134 -139 -4 -12 -17 -34 -30 -49 -17 -20 -27 -46 -31 -89 -9 -78 -20 -104 -50 -127 -30 -25 -49 -111 -40 -184 12 -99 8 -156 -12 -176 -17 -18 -18 -16 -15 56 3 67 0 82 -28 139 -17 36 -34 82 -37 103 -3 21 -18 53 -32 71 -55 70 -124 142 -137 142 -13 0 -54 46 -54 62 0 5 16 16 35 24 20 8 40 25 45 37 10 26 115 137 130 137 5 0 10 21 10 47 0 33 -8 59 -28 92 -15 25 -34 60 -43 76 -15 30 -16 30 -94 30 -74 0 -86 -3 -158 -40 -133 -68 -184 -158 -221 -388 -18 -107 -29 -143 -55 -172 -10 -11 -37 -53 -61 -94 -37 -65 -42 -79 -38 -121 3 -29 16 -67 34 -95 16 -26 34 -56 40 -66 6 -10 18 -27 27 -36 8 -10 30 -50 48 -88 32 -70 32 -70 33 -242 l1 -171 30 -44 c19 -27 48 -51 78 -66 61 -29 188 -158 206 -209 8 -21 37 -75 65 -121 28 -45 60 -100 71 -122 43 -83 190 -192 333 -245 85 -32 101 -35 206 -35 137 0 151 8 143 78 -3 28 -1 39 4 31 5 -8 9 -24 9 -36 0 -35 37 -53 110 -53 45 0 73 5 89 17 15 10 56 19 110 24 63 5 104 15 151 37 36 16 90 38 120 48 46 15 71 35 148 112 53 54 92 102 92 114 0 24 16 56 42 85 11 12 27 50 35 84 8 35 25 75 37 90 19 22 26 49 36 131 14 126 18 140 19 66 1 -77 7 -88 46 -88 32 0 34 2 44 52 13 59 26 78 52 78 13 0 25 13 36 38 10 20 32 57 49 82 50 71 94 166 94 203 0 54 26 125 57 155 15 15 36 41 45 57 10 17 27 42 39 56 24 31 35 97 25 164 -7 41 -12 49 -54 75 -52 33 -112 40 -132 15 -7 -9 -31 -30 -52 -47 l-39 -31 -23 22 c-18 17 -33 22 -62 19 -57 -4 -63 -30 -64 -288 0 -149 -5 -236 -15 -285 -8 -38 -15 -91 -15 -117 0 -56 -17 -74 -22 -22 -2 30 -9 40 -38 55 -19 11 -30 19 -24 19 6 0 29 23 52 51 32 40 42 61 48 105 3 31 3 74 -2 97 -9 41 -10 42 -53 45 -24 2 -61 -4 -82 -12 -50 -20 -79 -20 -145 1 l-53 16 35 25 c52 35 103 39 156 13 25 -11 60 -21 80 -21 45 0 58 27 58 120 0 77 15 158 36 198 18 34 17 86 -1 137 -19 53 -19 56 5 18 11 -18 24 -33 30 -33 6 0 20 -16 31 -35 18 -29 27 -35 55 -35 48 0 58 29 49 150 -9 129 -28 171 -89 194 -51 19 -54 28 -30 91 22 62 43 179 53 305 l9 115 69 65 c82 78 129 163 144 265 15 94 5 363 -15 435 -14 47 -22 115 -51 414 -2 26 -8 53 -13 60 -5 6 -22 47 -37 91 -26 75 -28 93 -33 290 -4 200 -6 213 -32 280 -15 39 -33 94 -39 124 -6 30 -24 77 -40 105 -16 28 -34 75 -41 104 -7 28 -16 54 -20 57 -5 3 -18 35 -30 71 -28 83 -100 169 -173 204 -29 14 -64 34 -80 44 -39 26 -233 35 -262 12z m72 -283 c-2 -16 -4 -3 -4 27 0 30 2 43 4 28 2 -16 2 -40 0 -55z m22 -265 c35 -83 39 -110 26 -179 l-13 -64 -1 86 c-1 66 -7 102 -26 153 -15 40 -25 85 -24 114 l1 47 9 -55 c4 -30 17 -76 28 -102z m364 -243 c5 -28 4 -34 -3 -20 -8 19 -14 73 -6 64 2 -2 6 -22 9 -44z m-1088 -215 c-16 -53 -17 -69 -6 -126 6 -37 10 -68 8 -71 -8 -7 -47 95 -47 124 -1 27 50 144 59 137 2 -2 -4 -31 -14 -64z m692 -192 c-2 -13 -4 -3 -4 22 0 25 2 35 4 23 2 -13 2 -33 0 -45z m467 -89 c-7 -35 -11 -46 -9 -24 3 22 5 72 6 110 1 67 2 68 9 24 5 -29 3 -68 -6 -110z m-475 -183 c-21 -21 -21 -21 -11 -1 6 12 14 66 19 120 l8 100 3 -99 c3 -91 1 -101 -19 -120z m455 22 c-9 -100 8 -172 51 -227 19 -24 35 -51 35 -60 0 -9 -18 -41 -41 -71 -48 -65 -56 -73 -40 -43 27 52 9 221 -32 300 -14 26 -13 34 4 83 10 30 19 62 19 72 0 10 2 18 5 18 3 0 2 -33 -1 -72z m-1057 -15 c-3 -10 -5 -2 -5 17 0 19 2 27 5 18 2 -10 2 -26 0 -35z m-293 -774 c15 -12 48 -32 74 -45 l47 -23 -42 0 c-56 -1 -73 -26 -73 -106 0 -42 -3 -56 -10 -45 -5 8 -10 27 -10 41 0 14 -11 41 -25 60 -26 35 -48 78 -59 117 -7 20 -4 22 32 22 25 0 49 -8 66 -21z m1306 -99 c8 -14 21 -20 45 -20 19 0 35 -4 35 -10 0 -5 -4 -10 -9 -10 -5 0 -12 -13 -16 -30 -3 -16 -15 -40 -26 -54 -11 -14 -27 -51 -35 -82 -8 -31 -27 -86 -43 -123 -22 -50 -30 -89 -35 -161 -4 -52 -14 -121 -23 -152 -18 -68 -12 -116 21 -150 l24 -23 -72 3 -72 4 -27 -35 c-14 -19 -38 -38 -52 -41 -24 -6 -25 -10 -25 -79 l-1 -72 -19 36 c-12 23 -31 41 -49 47 -17 6 -37 24 -46 41 l-16 31 41 0 c49 0 149 48 179 86 28 35 67 165 102 337 18 92 37 153 54 183 22 37 25 54 23 107 l-3 62 -42 3 c-40 3 -43 1 -62 -36 -11 -21 -31 -46 -45 -56 -14 -9 -35 -34 -46 -56 -11 -22 -23 -40 -25 -40 -10 0 27 76 49 100 13 14 32 41 44 60 27 46 133 149 154 150 4 0 12 -9 18 -20z m-971 -193 c25 -38 52 -80 60 -95 8 -15 24 -40 37 -55 31 -37 56 -121 45 -150 -8 -19 -12 -14 -40 46 -16 37 -34 67 -39 67 -6 0 -17 19 -27 43 -9 23 -29 58 -44 77 -36 46 -51 74 -51 98 0 11 -7 25 -15 32 -8 7 -15 19 -15 28 0 24 35 -12 89 -91z m-280 -12 c0 -11 -25 20 -41 50 -5 11 2 7 16 -10 14 -16 25 -34 25 -40z m250 -416 l23 -42 -30 21 c-16 12 -40 22 -51 22 -18 0 -21 6 -21 41 l0 40 28 -20 c15 -11 38 -39 51 -62z m623 -17 c18 -18 -21 -72 -65 -93 -59 -26 -149 -25 -193 2 -39 24 -37 35 9 44 17 4 47 16 66 28 18 11 47 24 65 28 37 10 105 4 118 -9z m-777 -62 c-10 -11 -22 -20 -26 -20 -5 0 2 10 14 23 27 28 38 25 12 -3z m239 -76 c10 -49 16 -61 40 -73 43 -20 138 -25 234 -11 76 11 94 10 132 -3 l45 -16 -112 -1 c-62 0 -135 -5 -163 -11 -43 -9 -59 -8 -101 7 -59 22 -86 51 -94 103 -3 20 -13 52 -21 71 l-15 35 21 -21 c14 -13 27 -45 34 -80z m906 -85 c18 -33 6 -42 -13 -9 -10 16 -14 30 -8 30 6 0 15 -9 21 -21z m-270 -244 c0 -13 -4 -27 -10 -30 -6 -4 -10 8 -10 30 0 22 4 34 10 30 6 -3 10 -17 10 -30z m-521 -383 c32 -23 31 -34 -4 -52 -34 -16 -135 -19 -210 -6 l-50 9 80 39 c87 42 134 45 184 10z m-777 -104 c-18 -35 -22 -123 -9 -172 7 -26 6 -28 -7 -17 -8 7 -18 24 -21 39 -3 15 -20 36 -37 47 -46 29 -47 45 -4 45 21 0 36 5 36 12 0 11 47 78 55 78 2 0 -4 -15 -13 -32z m417 -195 l66 -37 146 -4 c153 -5 147 -6 252 46 20 10 -16 -39 -39 -55 -32 -20 -130 -53 -160 -53 -42 0 -227 59 -254 80 -14 11 -40 27 -57 35 -31 14 -42 25 -26 25 3 0 36 -17 72 -37z m-350 -81 c10 -20 28 -45 39 -56 27 -23 46 -110 38 -167 -3 -24 -9 -89 -12 -144 l-5 -100 61 -50 c34 -27 75 -63 92 -78 16 -15 43 -34 58 -42 15 -8 30 -21 33 -29 7 -18 -51 20 -92 61 -16 15 -50 44 -76 63 -55 41 -81 67 -114 110 l-24 32 23 46 c42 86 36 246 -11 288 -10 9 -23 31 -28 48 -5 17 -12 40 -17 50 -13 34 15 8 35 -32z m372 -728 c21 -24 22 -26 3 -16 -25 13 -50 42 -37 42 5 0 20 -12 34 -26z"></path><path class="ucho" style="transform: scale(100%)" id="puE95BNrt" d="M5876 2143 c-11 -3 -37 -16 -58 -29 l-38 -24 0 -69 c0 -80 12 -121 38 -128 11 -2 28 -24 40 -49 21 -43 23 -44 68 -44 25 0 61 7 80 16 l34 16 0 73 c0 55 -4 78 -19 96 -10 13 -21 42 -25 64 -14 78 -44 97 -120 78z"></path></g></g><g id="l69ueH15qfzTO0ZAhM2Ztxa" fill="rgba(20,49,87)" style="transform: scale(100%)"><g><path style="" id="p19trMj3JS" d="M0 3960 l0 -3960 5030 0 5030 0 0 3960 0 3960 -461 0 c-304 0 -458 -3 -454 -10 4 -6 81 -10 199 -10 150 0 196 -3 212 -14 18 -13 19 -26 16 -160 -3 -127 -1 -146 13 -146 25 0 37 46 47 175 5 65 11 121 13 123 13 13 92 19 205 14 130 -5 132 -5 141 -31 19 -48 1 -312 -36 -541 -19 -113 -25 -189 -29 -345 -4 -118 -8 -142 -45 -263 -23 -74 -41 -138 -41 -143 0 -4 -13 -30 -30 -56 -16 -26 -30 -59 -30 -74 0 -14 -11 -43 -25 -64 -14 -20 -30 -60 -36 -89 -5 -28 -25 -83 -44 -122 -19 -39 -39 -93 -45 -119 -6 -25 -19 -64 -30 -86 -30 -57 -39 -113 -54 -341 -10 -133 -20 -217 -29 -235 -8 -15 -24 -58 -36 -95 -38 -114 -46 -103 -56 77 -3 61 -8 160 -10 220 -6 159 -14 243 -35 395 -11 74 -24 214 -30 310 -11 199 -11 196 -50 420 -16 91 -31 203 -35 250 -3 47 -14 116 -25 155 -10 38 -26 122 -36 185 -9 63 -28 142 -41 175 -13 33 -33 100 -44 149 -26 115 -32 126 -73 126 -52 0 -59 -16 -37 -92 11 -37 24 -108 31 -160 6 -51 20 -124 30 -163 16 -62 30 -215 44 -500 2 -38 11 -94 20 -124 9 -30 23 -134 31 -230 20 -225 34 -362 41 -380 2 -8 13 -114 24 -235 21 -237 35 -350 48 -387 24 -66 72 -525 72 -682 0 -129 -35 -416 -60 -492 -11 -33 -25 -85 -31 -115 -18 -93 -79 -263 -108 -305 -16 -22 -32 -51 -36 -65 -4 -14 -23 -46 -41 -71 -19 -26 -34 -50 -34 -55 0 -4 -13 -22 -29 -39 -72 -73 -189 -256 -201 -313 -23 -106 -85 -272 -127 -342 -51 -85 -124 -149 -243 -212 -117 -62 -156 -48 -115 40 14 29 29 72 36 95 6 23 17 49 24 57 23 28 38 64 58 140 26 102 27 134 4 138 -31 6 -64 -25 -82 -78 -9 -28 -32 -76 -51 -107 -19 -31 -34 -66 -34 -77 0 -12 -15 -52 -35 -91 -19 -38 -39 -89 -45 -112 -12 -48 -69 -125 -125 -167 -30 -23 -171 -75 -207 -76 -4 0 -15 14 -23 31 -21 40 -12 81 29 122 47 47 102 127 114 167 19 58 42 192 42 241 0 25 -9 104 -19 175 -11 71 -22 183 -25 249 -8 140 -22 242 -41 305 -8 25 -21 84 -29 132 -8 48 -24 108 -35 134 -29 66 -36 134 -21 228 17 109 -5 298 -45 384 -15 31 -33 82 -41 112 -8 30 -26 77 -40 104 -15 26 -32 71 -40 98 -7 28 -24 67 -38 87 -35 51 -106 260 -106 313 0 28 -10 63 -28 98 -16 30 -37 80 -47 110 -21 65 -52 118 -170 290 -25 36 -45 74 -45 85 0 11 11 44 25 73 14 30 25 58 25 64 0 15 90 99 120 112 27 11 63 38 143 107 23 20 76 50 117 65 69 26 85 28 198 27 67 -1 148 -7 179 -13 31 -5 120 -10 198 -10 115 0 153 4 201 20 32 11 66 20 74 20 29 0 120 71 120 94 0 11 10 41 21 65 27 60 27 105 0 171 -43 102 -45 105 -76 103 -43 -3 -47 -14 -30 -78 8 -33 15 -84 15 -113 0 -50 -3 -58 -36 -89 -72 -68 -72 -68 -365 -71 -335 -4 -313 -15 -315 154 -1 66 -9 187 -17 269 -17 181 -23 837 -8 878 l11 27 238 0 c172 0 241 -3 250 -12 7 -7 12 -43 12 -94 0 -88 19 -216 49 -324 11 -37 22 -97 26 -133 6 -59 5 -66 -13 -76 -12 -6 -48 -11 -82 -11 -74 0 -102 -13 -162 -78 -63 -67 -76 -143 -33 -186 21 -21 42 -10 65 33 23 47 33 55 96 77 48 16 55 16 154 0 79 -13 111 -23 133 -42 16 -13 32 -24 37 -24 8 0 82 -55 165 -123 17 -13 44 -31 60 -40 39 -20 91 -76 99 -107 13 -46 35 -641 36 -932 l0 -287 -26 -20 c-34 -27 -72 -26 -154 2 -58 20 -65 25 -62 47 1 14 2 124 2 245 0 121 4 243 10 270 16 80 24 326 11 358 -9 24 -16 28 -43 25 -25 -2 -34 -9 -41 -33 -5 -16 -11 -223 -13 -459 -3 -297 -7 -433 -15 -442 -6 -8 -30 -14 -54 -14 -76 0 -271 74 -320 121 -17 16 -36 29 -42 29 -6 0 -30 16 -53 35 -23 19 -46 35 -50 35 -5 0 -29 17 -54 39 -27 23 -68 46 -103 56 -32 10 -71 25 -87 32 -21 11 -31 12 -40 3 -8 -9 -5 -16 13 -31 14 -11 30 -30 35 -42 6 -12 30 -31 52 -42 23 -11 58 -35 78 -52 20 -18 43 -33 50 -33 7 0 27 -15 44 -34 17 -19 41 -38 53 -41 13 -4 40 -20 61 -36 22 -15 54 -31 71 -34 18 -4 46 -18 63 -31 17 -13 60 -30 95 -38 35 -8 116 -27 179 -42 78 -18 161 -29 255 -34 78 -4 150 -12 162 -18 11 -6 35 -33 52 -60 36 -56 39 -93 17 -199 -8 -38 -22 -136 -31 -218 -9 -83 -25 -184 -35 -225 -26 -106 -29 -133 -39 -342 -8 -155 -13 -195 -30 -230 -40 -84 -102 -179 -173 -264 -21 -25 -38 -50 -38 -56 0 -6 -29 -39 -65 -73 -36 -35 -65 -70 -65 -78 0 -9 -11 -22 -24 -29 -29 -15 -136 -116 -136 -128 0 -4 8 -18 18 -30 24 -30 66 -21 120 26 22 18 44 34 49 34 4 0 33 27 63 61 30 34 74 81 98 104 23 24 42 48 42 53 0 5 9 17 21 28 12 10 29 35 39 55 10 19 35 55 54 78 20 24 36 47 36 51 0 5 13 30 29 57 26 41 33 70 50 198 36 269 51 398 62 510 10 110 28 221 54 325 21 84 39 233 32 260 -6 23 -95 122 -160 178 -25 23 -26 27 -19 85 4 34 7 312 7 617 l0 555 -26 45 c-15 25 -29 61 -33 81 -7 38 -59 96 -111 122 -17 8 -39 25 -49 36 -11 12 -40 31 -65 42 -25 11 -52 26 -61 34 -8 7 -28 17 -45 21 -16 4 -48 22 -70 39 -22 18 -53 40 -70 49 -16 10 -43 36 -59 59 l-28 40 2 156 c3 205 5 196 -30 228 -28 27 -32 37 -41 127 -9 84 -8 101 6 115 8 10 15 21 15 24 0 4 -1897 7 -4215 7 l-4215 0 0 -3960z m7002 3919 c10 -5 36 -36 58 -68 22 -33 50 -68 64 -78 13 -11 29 -36 34 -57 6 -20 24 -58 40 -84 17 -26 35 -71 41 -100 6 -29 21 -74 34 -100 13 -26 32 -78 41 -116 9 -38 28 -92 41 -120 15 -33 27 -87 34 -152 7 -55 25 -148 42 -205 16 -57 33 -130 38 -162 9 -70 24 -89 48 -64 14 13 18 38 20 107 3 94 -8 160 -51 324 -14 54 -26 110 -26 123 0 14 -13 55 -29 91 -16 37 -35 96 -41 132 -6 36 -22 85 -34 110 -13 25 -31 71 -40 102 -9 32 -25 66 -35 75 -11 10 -29 43 -41 75 -11 31 -28 62 -36 69 -39 32 -56 102 -28 113 26 10 521 7 548 -4 l25 -9 0 -223 c0 -123 3 -272 6 -333 3 -60 7 -186 9 -280 4 -167 5 -172 41 -270 58 -157 61 -173 39 -190 -11 -7 -45 -18 -77 -24 -32 -6 -73 -19 -90 -29 -18 -11 -52 -27 -77 -36 -28 -11 -51 -27 -61 -45 -9 -16 -29 -31 -44 -35 -14 -4 -49 -24 -76 -46 -45 -35 -101 -60 -138 -60 -7 0 -41 22 -75 49 -34 26 -73 54 -86 61 -14 7 -35 22 -48 34 -22 20 -77 51 -172 97 -25 12 -64 35 -87 50 -23 16 -46 29 -50 29 -5 0 -31 14 -58 31 -28 17 -67 38 -88 45 -21 7 -50 22 -65 32 -15 11 -45 25 -67 32 -22 7 -65 28 -96 46 -31 19 -59 34 -62 34 -11 0 -97 61 -104 74 -5 7 -42 21 -83 30 -41 9 -99 28 -129 42 -30 13 -75 29 -100 35 -25 5 -59 16 -76 24 -16 7 -55 22 -86 33 -31 12 -73 32 -93 46 -20 13 -54 30 -74 37 -20 7 -53 22 -72 35 -19 13 -63 32 -97 42 -33 11 -74 28 -90 40 -33 23 -95 42 -141 42 -19 0 -64 13 -100 29 -37 16 -96 33 -132 36 -36 4 -94 20 -130 35 -127 54 -226 49 -274 -15 -32 -42 -68 -46 -114 -12 -87 64 -110 85 -137 121 -17 21 -34 45 -40 52 -6 9 0 24 21 50 23 29 43 41 89 54 33 9 78 26 100 38 22 12 55 24 75 28 104 16 130 26 163 64 19 20 39 46 45 56 10 18 34 19 514 24 681 7 1719 0 1740 -11z m-4107 -14 c0 -12 -11 -25 -29 -33 -15 -8 -36 -27 -45 -43 -9 -16 -28 -33 -43 -38 -14 -5 -32 -19 -38 -32 -7 -12 -29 -39 -49 -59 -56 -58 -81 -91 -106 -140 -13 -25 -32 -54 -44 -64 -12 -11 -21 -29 -21 -40 0 -27 -27 -66 -45 -66 -8 0 -22 15 -32 33 -15 27 -18 57 -18 187 0 133 3 165 23 227 12 40 30 77 40 82 10 7 93 10 212 8 187 -2 195 -3 195 -22z m1341 1 c28 -39 16 -100 -34 -178 -21 -32 -24 -47 -20 -101 3 -58 8 -68 46 -112 23 -26 42 -52 42 -57 0 -35 -35 -78 -80 -97 -27 -12 -54 -21 -60 -21 -7 0 -27 -7 -46 -16 -19 -9 -40 -14 -48 -11 -8 3 -36 36 -63 73 -26 36 -83 102 -125 145 -43 44 -78 83 -78 88 0 5 -16 18 -35 30 -22 12 -35 28 -35 40 0 12 -11 26 -28 35 -15 8 -36 24 -47 36 -11 12 -40 32 -65 45 -25 13 -53 32 -63 43 -10 11 -44 31 -74 43 -46 18 -53 24 -37 30 10 4 203 7 427 6 392 -2 409 -3 423 -21z m-996 -84 c19 -11 59 -27 89 -36 30 -9 65 -26 77 -37 12 -12 49 -35 82 -53 122 -64 142 -77 142 -91 0 -8 13 -21 29 -30 16 -8 39 -28 50 -44 12 -17 29 -32 39 -35 10 -3 25 -19 35 -35 10 -17 26 -32 36 -36 10 -3 26 -20 36 -38 9 -18 30 -40 45 -49 23 -13 30 -26 36 -64 6 -43 4 -49 -17 -65 -13 -10 -30 -24 -38 -32 -22 -24 -62 -64 -80 -80 -47 -43 -171 -199 -171 -215 0 -26 -175 -212 -199 -212 -6 0 -25 -13 -43 -28 -52 -45 -148 -72 -252 -72 -72 0 -196 29 -203 47 -7 19 62 91 104 109 18 8 47 27 65 43 18 15 48 36 66 45 18 9 35 23 38 31 3 8 26 26 50 40 55 32 106 100 102 134 -2 15 -14 31 -29 40 -46 26 -65 14 -194 -121 -14 -16 -39 -35 -55 -43 -16 -8 -34 -24 -40 -35 -6 -10 -29 -28 -53 -38 -23 -11 -70 -49 -104 -85 l-63 -65 0 -159 c-1 -105 -5 -165 -13 -179 -16 -30 -105 -107 -145 -128 -44 -23 -68 -65 -82 -145 -6 -36 -21 -102 -32 -146 -30 -112 -32 -325 -4 -377 28 -51 17 -72 -35 -65 -23 3 -46 10 -51 15 -6 6 -18 43 -28 84 -10 40 -25 89 -33 108 -8 19 -20 90 -26 157 -9 110 -28 183 -48 183 -3 0 -25 -11 -48 -25 -34 -19 -45 -33 -55 -69 -7 -26 -22 -52 -35 -60 -13 -8 -31 -37 -41 -63 -9 -26 -27 -59 -39 -73 -33 -36 -43 -81 -48 -210 -4 -104 -7 -116 -28 -133 -26 -21 -66 -16 -86 10 -18 24 -17 192 2 240 8 21 19 66 25 100 6 34 24 87 39 117 49 93 52 236 5 236 -34 0 -80 -32 -102 -70 -12 -22 -29 -40 -37 -40 -7 0 -17 -9 -20 -20 -4 -11 -22 -41 -42 -67 -19 -25 -42 -67 -51 -92 -8 -25 -24 -59 -35 -74 -10 -16 -30 -57 -43 -93 -24 -67 -101 -194 -117 -194 -17 0 1 134 26 195 13 33 30 91 37 130 6 38 20 83 30 100 10 16 26 57 35 90 10 33 26 76 35 95 36 71 38 151 5 164 -28 10 -113 -79 -130 -136 -8 -28 -29 -67 -47 -88 -45 -52 -78 -108 -78 -130 0 -21 -30 -80 -61 -118 -9 -13 -21 -36 -24 -53 -4 -16 -20 -39 -35 -51 -16 -12 -36 -38 -44 -60 -29 -71 -92 -37 -80 43 9 65 145 351 181 383 28 24 29 51 3 73 -11 10 -20 22 -20 27 0 23 77 100 118 117 25 11 60 33 79 49 18 17 38 30 43 30 12 0 65 47 159 140 41 41 87 84 102 95 24 19 165 149 368 340 80 76 165 196 176 248 4 17 17 48 30 68 13 20 29 56 36 80 7 24 23 58 35 74 12 17 27 46 33 66 7 20 21 45 32 55 12 11 29 35 40 54 39 75 217 239 319 295 62 33 69 35 150 32 64 -3 94 -9 120 -25z m1477 -413 c15 -5 30 -15 33 -20 4 -5 44 -22 91 -38 46 -15 107 -37 134 -48 28 -12 70 -27 95 -34 42 -13 45 -16 48 -53 3 -30 -3 -48 -27 -82 -17 -23 -31 -49 -31 -56 0 -8 -13 -32 -28 -54 -16 -21 -37 -59 -46 -84 -10 -25 -26 -54 -36 -65 -10 -11 -28 -42 -40 -70 -12 -27 -29 -59 -39 -70 -10 -11 -26 -40 -35 -65 -10 -25 -33 -60 -52 -77 l-35 -33 2 -109 c2 -122 12 -190 40 -272 23 -66 47 -192 59 -310 4 -47 18 -117 30 -155 15 -48 24 -114 30 -219 6 -104 17 -179 34 -247 38 -143 47 -278 51 -753 2 -236 7 -438 10 -447 10 -26 24 -22 36 10 18 45 68 421 69 507 0 44 -7 150 -16 235 -9 85 -20 196 -24 245 -10 123 -28 239 -46 305 -31 111 -34 134 -49 313 -8 100 -20 198 -25 217 -6 19 -17 116 -24 215 -8 99 -22 222 -32 273 l-18 92 29 88 c15 48 38 101 51 118 12 17 27 49 33 71 6 22 19 47 28 54 9 8 27 38 40 68 13 29 34 67 47 85 13 17 33 53 45 81 12 27 30 59 40 70 10 11 26 35 35 53 22 42 47 42 132 -3 42 -22 79 -35 104 -35 25 0 40 -5 44 -16 13 -35 4 -106 -25 -194 -40 -123 -27 -178 28 -117 30 33 48 73 68 154 21 90 35 104 75 75 16 -12 53 -31 82 -43 29 -11 67 -29 84 -40 17 -10 67 -28 111 -39 44 -11 110 -34 146 -50 36 -17 82 -34 103 -37 22 -3 67 -21 102 -40 35 -18 76 -33 90 -33 55 0 54 11 58 -379 3 -300 6 -367 19 -391 17 -32 22 -35 45 -20 12 7 14 56 15 297 0 256 2 292 18 324 26 52 57 66 100 45 19 -9 39 -16 45 -16 5 0 20 -8 33 -19 13 -10 51 -28 84 -40 33 -12 71 -33 85 -45 14 -13 37 -26 51 -30 15 -3 46 -22 69 -41 23 -19 45 -35 50 -35 4 0 25 -14 46 -31 22 -17 58 -40 82 -50 50 -22 53 -38 16 -114 -19 -41 -25 -71 -26 -124 0 -65 2 -74 35 -118 19 -26 38 -58 41 -71 4 -12 16 -27 27 -32 10 -6 31 -34 45 -63 14 -29 35 -62 46 -73 10 -12 26 -50 34 -85 8 -35 26 -81 40 -102 32 -49 40 -96 21 -121 -14 -18 -16 -19 -56 -3 -23 10 -53 17 -67 17 -14 0 -64 7 -110 17 -73 14 -94 14 -147 4 -34 -7 -94 -19 -134 -26 -46 -9 -95 -27 -138 -52 -78 -44 -237 -182 -280 -243 -16 -23 -42 -56 -56 -73 -15 -18 -36 -51 -48 -74 -11 -23 -26 -45 -32 -49 -6 -3 -21 -27 -33 -53 -12 -25 -33 -66 -48 -91 -14 -25 -29 -56 -33 -70 -4 -14 -20 -41 -35 -60 -15 -19 -35 -51 -45 -70 -10 -19 -31 -50 -46 -68 -16 -18 -29 -39 -29 -46 0 -7 -11 -24 -24 -38 -14 -13 -34 -49 -46 -78 -12 -30 -39 -73 -60 -95 -37 -40 -38 -42 -54 -170 -9 -71 -16 -157 -16 -190 0 -38 -8 -76 -20 -104 -11 -24 -20 -48 -20 -54 0 -6 -12 -23 -26 -38 -15 -15 -39 -63 -54 -106 -16 -43 -36 -98 -45 -123 -9 -25 -19 -79 -22 -120 -8 -136 -12 -141 -84 -88 -62 46 -205 117 -259 129 -25 5 -61 20 -80 33 -19 13 -60 31 -90 41 -30 9 -123 51 -206 91 -82 41 -154 74 -160 74 -5 0 -32 15 -59 33 -28 18 -72 41 -100 51 -27 11 -56 23 -63 29 -7 6 -36 21 -63 33 -28 13 -63 33 -77 44 -38 29 -131 89 -167 107 -60 31 -201 127 -238 162 -52 49 -67 80 -82 177 -16 93 -38 135 -110 204 -79 76 -85 88 -99 214 -10 82 -20 125 -34 148 -12 18 -30 49 -41 70 -11 20 -34 46 -51 58 -16 12 -30 27 -30 34 0 7 -17 22 -38 33 -51 29 -129 108 -153 154 -23 45 -24 94 -4 129 15 27 41 79 59 120 6 14 20 41 32 60 11 19 28 56 37 82 8 26 27 63 41 81 17 22 26 47 26 69 0 20 11 60 25 90 29 61 32 93 9 102 -9 3 -79 6 -157 6 l-142 0 -47 38 c-38 30 -47 43 -48 70 0 28 3 32 26 32 15 0 74 -12 132 -26 122 -30 155 -27 225 19 55 38 69 70 40 98 -17 17 -41 21 -169 29 -88 5 -167 16 -194 25 -25 9 -85 25 -133 35 -49 11 -103 28 -120 39 -18 11 -58 27 -89 36 l-57 16 -6 62 c-4 37 -2 73 4 91 10 25 15 28 44 23 17 -3 52 -13 77 -22 64 -24 174 -15 236 19 26 14 63 30 83 36 21 5 59 24 87 42 58 39 174 150 174 168 0 7 17 32 38 55 74 85 112 134 112 144 0 19 167 191 185 191 6 0 22 12 36 26 13 15 42 35 64 45 22 10 52 28 66 40 14 11 55 29 90 39 35 10 92 30 126 44 68 29 106 27 126 -5 7 -11 16 -19 22 -19 6 0 37 27 70 60 63 64 90 73 152 49z m-1349 -1575 c29 -8 28 -20 -5 -53 -16 -15 -36 -37 -45 -48 -9 -12 -34 -25 -55 -28 -32 -6 -167 -67 -263 -120 -14 -8 -42 -21 -62 -30 -21 -9 -52 -29 -69 -44 -17 -16 -51 -35 -75 -41 -25 -7 -50 -22 -59 -36 -17 -26 -56 -32 -73 -11 -5 6 -15 32 -22 57 -7 24 -23 57 -36 73 -21 25 -24 39 -24 106 0 46 5 84 13 94 20 27 94 47 176 47 96 0 502 28 509 35 7 7 62 6 90 -1z m-1108 -36 c0 -56 31 -201 47 -225 11 -15 28 -53 38 -83 12 -35 30 -65 52 -84 53 -47 40 -108 -29 -137 -18 -7 -44 -24 -58 -37 -14 -13 -45 -32 -69 -43 -23 -11 -54 -28 -68 -39 -32 -25 -75 -25 -127 -1 -24 11 -84 24 -141 30 -61 7 -135 23 -190 42 -57 19 -123 34 -181 39 -55 5 -108 16 -137 29 -25 12 -58 21 -72 21 -48 0 -169 32 -210 55 -41 24 -132 45 -192 45 -19 0 -58 11 -86 25 -29 13 -83 31 -121 40 -38 9 -83 24 -100 32 -17 9 -78 29 -135 44 -109 29 -116 32 -107 47 11 18 117 31 307 37 208 7 219 6 267 -39 20 -18 35 -21 98 -19 70 1 74 0 74 -20 0 -12 14 -50 32 -84 32 -62 33 -63 74 -63 38 0 48 6 103 60 34 33 66 72 71 85 5 14 16 25 24 25 16 0 23 -22 32 -105 8 -74 37 -133 70 -145 34 -13 97 -13 127 1 13 6 32 25 40 42 9 18 26 44 38 58 15 18 24 51 31 109 14 115 21 132 56 128 l27 -3 3 -149 c3 -148 3 -149 32 -185 58 -71 59 -71 103 -71 50 0 54 3 101 58 35 42 36 47 37 125 0 127 12 211 34 242 11 15 25 35 30 44 42 69 75 99 75 69z m1225 -155 c-1 -39 -6 -58 -22 -75 -12 -13 -35 -53 -52 -90 -17 -38 -34 -68 -39 -68 -5 0 -18 -19 -28 -42 -10 -24 -35 -68 -55 -98 -20 -30 -53 -80 -73 -110 -20 -30 -36 -60 -36 -66 0 -6 -15 -31 -32 -55 -18 -24 -46 -69 -61 -99 -16 -30 -44 -80 -63 -110 -18 -30 -45 -77 -59 -105 -14 -27 -41 -75 -60 -105 -19 -30 -46 -77 -62 -104 -15 -27 -42 -65 -58 -85 -37 -44 -103 -140 -130 -189 -11 -21 -35 -57 -52 -81 -18 -24 -33 -48 -33 -53 0 -5 -15 -31 -34 -59 -19 -27 -38 -59 -42 -72 -4 -12 -22 -44 -40 -70 -19 -27 -34 -53 -34 -58 0 -5 -15 -32 -32 -59 -52 -78 -92 -141 -111 -177 -10 -19 -31 -53 -47 -75 -17 -23 -30 -46 -30 -51 0 -6 -11 -24 -23 -41 -42 -55 -102 -159 -126 -219 -28 -69 -37 -76 -53 -42 -16 35 6 516 28 600 9 35 19 144 24 265 11 240 24 355 50 459 12 51 22 145 29 281 l11 204 32 26 c18 14 41 33 51 43 11 11 42 29 70 42 29 13 63 34 76 48 13 15 44 30 71 37 27 6 56 20 66 31 9 10 40 30 68 44 28 14 67 34 86 45 75 41 206 100 220 100 9 0 26 7 38 16 12 8 47 24 78 34 31 11 67 30 79 43 13 12 46 31 74 41 28 10 54 22 57 28 3 5 43 27 88 48 45 22 91 49 101 60 14 15 29 20 54 18 l36 -3 0 -52z m-3202 -121 c13 -12 65 -33 122 -48 55 -14 116 -34 135 -44 19 -9 68 -20 109 -24 47 -4 97 -17 140 -35 36 -16 99 -36 140 -45 40 -9 91 -26 114 -37 22 -12 84 -27 138 -35 54 -7 116 -22 137 -33 47 -24 149 -51 192 -51 17 0 59 -11 93 -25 34 -13 122 -33 194 -44 132 -20 212 -49 242 -85 17 -21 9 -116 -24 -281 -25 -123 -38 -253 -55 -550 -6 -93 -17 -242 -25 -330 -8 -88 -19 -234 -25 -325 -6 -91 -20 -218 -32 -283 -18 -104 -24 -120 -44 -129 -28 -13 -47 0 -71 46 -9 17 -28 46 -42 64 -14 17 -44 54 -66 82 -22 27 -58 72 -80 101 -22 28 -60 75 -85 104 -57 67 -82 102 -97 137 -7 15 -25 40 -40 55 -15 16 -40 46 -55 68 -15 22 -45 65 -67 95 -22 30 -53 73 -68 95 -15 22 -42 58 -60 79 -18 22 -33 45 -33 52 0 6 -7 18 -17 25 -9 8 -31 37 -50 64 -18 28 -60 88 -93 135 -33 47 -63 94 -66 105 -4 11 -18 38 -32 60 -46 72 -95 149 -129 200 -18 28 -33 57 -33 66 0 8 -19 38 -43 66 -24 28 -61 75 -82 104 -21 30 -55 73 -74 95 -20 23 -46 57 -58 75 -12 19 -42 65 -67 102 -25 37 -46 71 -46 75 0 10 -80 117 -127 171 -21 24 -42 50 -46 57 -12 21 2 54 26 63 30 11 124 -12 150 -37z m7006 -229 c14 -10 49 -29 78 -43 73 -35 145 -121 173 -204 12 -36 25 -68 30 -71 4 -3 13 -29 20 -57 7 -29 25 -76 41 -104 16 -28 34 -75 40 -105 6 -30 24 -85 39 -124 26 -67 28 -80 32 -280 5 -197 7 -215 33 -290 15 -44 32 -85 37 -91 5 -7 11 -34 13 -60 29 -299 37 -367 51 -414 20 -74 29 -287 16 -375 -16 -102 -63 -187 -145 -265 l-69 -65 -9 -115 c-10 -126 -31 -243 -53 -305 -8 -22 -15 -61 -16 -87 0 -46 0 -46 46 -64 31 -12 50 -27 61 -48 22 -42 36 -177 22 -213 -11 -27 -12 -27 -23 -8 -6 11 -25 33 -43 50 -18 17 -42 53 -54 80 -12 28 -29 59 -39 70 -10 11 -20 31 -23 45 -4 14 -24 39 -46 55 -58 43 -72 76 -55 130 7 24 16 88 20 142 5 75 13 113 35 164 16 37 35 92 44 124 8 32 21 66 30 75 8 9 20 31 26 50 7 18 20 41 31 52 37 37 19 68 -42 68 -19 0 -33 8 -44 25 -24 36 -59 32 -114 -12 -58 -47 -75 -65 -117 -130 -19 -28 -40 -55 -46 -59 -6 -3 -24 -36 -40 -72 l-30 -65 -27 26 c-36 35 -58 34 -77 -3 -18 -35 -56 -48 -97 -32 -48 18 -51 -34 -2 -56 33 -16 55 -15 78 3 24 18 70 19 84 2 6 -6 13 -24 16 -40 3 -15 8 -38 11 -52 8 -38 22 -22 36 40 8 38 18 56 31 61 10 3 33 30 50 60 17 31 42 62 55 71 13 9 33 34 44 55 11 22 25 38 32 35 23 -7 19 -65 -8 -111 -17 -30 -35 -91 -54 -183 -35 -172 -74 -302 -102 -337 -23 -30 -127 -86 -159 -86 -11 0 -46 9 -78 20 -56 20 -60 20 -160 4 -85 -14 -112 -15 -157 -5 -64 14 -71 22 -80 85 -5 30 -18 60 -34 80 -15 17 -38 49 -51 71 -33 55 -108 127 -128 123 -14 -3 -16 -14 -14 -61 4 -53 2 -57 -22 -66 -14 -6 -32 -23 -40 -39 -8 -16 -27 -37 -41 -46 -15 -10 -35 -26 -46 -37 -24 -24 -55 -25 -67 -1 -6 9 -12 71 -14 137 -2 66 -10 130 -16 142 -11 20 -80 49 -91 38 -2 -3 4 -14 14 -25 22 -24 39 -201 32 -325 -8 -129 -54 -191 -77 -102 -19 71 -32 110 -50 147 -10 19 -21 51 -25 70 -4 19 -20 64 -35 100 -24 57 -28 82 -34 210 -4 80 -15 192 -26 250 -18 100 -18 114 -4 270 20 215 25 234 74 265 43 27 77 68 110 134 22 44 22 47 7 110 -13 54 -14 95 -8 226 13 246 43 324 221 567 97 134 146 215 155 258 3 19 21 58 39 85 59 90 65 100 98 146 18 25 45 58 60 75 14 16 39 43 55 61 49 56 157 128 230 153 86 29 103 24 103 -30 0 -36 4 -43 34 -61 45 -26 49 -49 41 -217 -7 -133 -6 -139 20 -207 25 -67 26 -76 20 -187 -6 -100 -4 -119 8 -124 38 -14 52 11 71 128 20 124 20 124 -34 272 -19 53 -20 70 -14 176 8 139 -1 174 -57 227 l-40 38 23 19 c20 16 34 18 102 12 50 -3 88 -12 105 -23z m-1489 -2868 c8 -16 27 -51 42 -76 29 -47 36 -79 18 -79 -15 0 -120 -111 -131 -138 -5 -13 -23 -28 -39 -34 -17 -5 -35 -18 -40 -28 -18 -33 22 -120 55 -120 12 0 83 -74 136 -142 14 -18 29 -50 32 -71 3 -21 20 -66 36 -101 42 -86 41 -130 -4 -187 -19 -24 -35 -50 -35 -56 0 -20 -26 -15 -66 12 -20 14 -42 25 -49 25 -6 0 -20 9 -30 20 -20 22 -97 60 -121 60 -9 0 -14 -11 -14 -29 0 -25 5 -31 30 -36 17 -4 48 -22 71 -41 22 -19 53 -41 68 -50 15 -9 34 -29 43 -45 10 -16 28 -34 42 -40 13 -6 27 -23 31 -37 4 -15 22 -43 40 -64 19 -20 39 -54 44 -76 6 -21 20 -47 30 -56 25 -23 45 -106 37 -151 -4 -19 -18 -59 -31 -87 -32 -67 -31 -77 4 -124 37 -49 58 -70 116 -114 25 -19 64 -52 85 -72 22 -21 43 -38 48 -38 5 0 31 -21 59 -47 28 -27 73 -69 102 -94 28 -26 58 -62 66 -82 23 -55 5 -67 -101 -67 -71 0 -98 5 -176 35 -143 53 -290 162 -333 245 -11 22 -43 77 -71 122 -28 46 -57 100 -65 121 -18 51 -145 180 -206 209 -30 15 -59 39 -78 66 l-30 44 0 171 0 172 -36 75 c-20 41 -43 81 -52 89 -10 7 -17 17 -17 22 0 5 -13 27 -29 50 -17 22 -35 56 -41 74 -10 32 -8 40 31 107 23 40 50 82 60 93 26 29 37 65 55 172 34 217 89 319 199 376 90 47 116 56 160 54 33 -2 42 -7 55 -32z m681 -96 c34 -24 64 -78 72 -133 8 -52 31 -83 75 -102 61 -26 113 -31 172 -17 30 7 99 13 152 13 l97 0 16 -30 c9 -16 30 -36 48 -43 23 -10 39 -28 56 -65 l24 -52 -22 -113 c-22 -112 -21 -147 4 -147 24 0 46 39 56 99 5 34 18 79 29 99 25 46 25 73 0 119 -11 21 -20 57 -20 80 0 37 3 43 25 49 14 3 37 22 52 40 41 54 108 45 147 -20 13 -22 36 -52 50 -65 14 -13 28 -38 31 -55 4 -17 13 -50 21 -74 12 -38 12 -48 -1 -75 -23 -50 -34 -115 -35 -194 0 -70 -14 -123 -32 -123 -5 0 -19 7 -31 14 -67 44 -162 39 -239 -11 -35 -24 -41 -25 -54 -11 -8 8 -18 37 -22 63 -8 58 -26 68 -41 24 -16 -48 -14 -96 7 -117 17 -17 150 -64 221 -78 20 -4 57 2 102 16 85 28 94 22 93 -55 -1 -58 -10 -77 -67 -137 l-35 -38 -90 0 c-95 0 -121 -11 -87 -37 12 -8 47 -13 93 -13 70 0 133 -18 148 -41 3 -5 1 -24 -5 -42 -5 -17 -15 -78 -21 -135 -10 -82 -17 -109 -36 -131 -12 -15 -29 -55 -37 -90 -8 -34 -24 -72 -35 -84 -26 -29 -42 -61 -42 -85 0 -12 -39 -60 -92 -114 -77 -77 -102 -97 -148 -112 -30 -10 -84 -32 -120 -48 -47 -22 -88 -32 -151 -37 -54 -5 -95 -14 -110 -24 -49 -35 -139 -12 -139 36 -1 25 -15 52 -48 87 -75 82 -204 210 -211 210 -4 0 -24 15 -44 33 -20 17 -63 55 -97 82 l-61 50 6 70 c3 39 8 103 11 144 7 89 -8 171 -38 197 -11 11 -28 35 -38 55 -11 20 -30 43 -43 52 -33 21 -51 92 -36 138 6 19 24 50 39 69 35 45 43 94 31 192 -11 95 1 160 35 187 29 23 40 50 49 127 4 43 14 69 31 89 13 15 26 37 30 49 9 27 139 153 194 187 14 8 34 34 44 57 11 23 24 42 29 42 5 0 22 -9 38 -21z m-516 -252 c4 -23 16 -53 26 -66 12 -15 19 -40 19 -66 0 -39 -3 -44 -34 -59 -52 -24 -64 -20 -88 28 -12 25 -29 47 -40 49 -22 6 -38 46 -38 98 0 34 5 42 38 63 21 13 47 26 58 28 26 7 51 -24 59 -75z m1963 -281 c33 -20 41 -33 47 -65 8 -48 -7 -101 -36 -127 -12 -11 -30 -36 -40 -56 -11 -21 -28 -42 -39 -48 -22 -12 -50 -95 -50 -147 0 -37 -44 -132 -94 -203 -17 -25 -39 -62 -49 -82 -11 -25 -23 -38 -36 -38 -26 0 -39 -19 -52 -79 -8 -37 -14 -49 -20 -40 -14 22 -10 81 6 113 8 15 15 47 15 70 0 22 7 73 15 111 10 49 15 133 15 280 0 199 8 277 31 290 5 4 23 -5 40 -19 17 -14 39 -26 49 -26 18 0 111 67 125 90 8 13 20 9 73 -24z"></path><path style="transform: scale(110%, 110%) translate(-8%, -6%)" id="prWyDjjsR" d="M5856 7821 c-22 -24 -12 -43 38 -68 17 -8 42 -26 56 -39 23 -23 106 -76 175 -113 17 -9 42 -27 55 -39 14 -13 41 -35 60 -48 19 -13 58 -39 85 -58 28 -19 79 -62 114 -95 35 -34 68 -61 72 -61 5 0 25 -15 45 -34 19 -18 47 -40 62 -47 32 -16 113 -76 161 -119 19 -16 38 -30 43 -30 5 0 26 -17 46 -37 21 -21 72 -68 112 -105 41 -37 82 -74 90 -81 8 -8 22 -21 30 -29 52 -55 99 -97 122 -111 14 -9 29 -26 33 -37 7 -23 43 -27 51 -6 10 27 -34 91 -127 186 -51 52 -118 122 -148 155 -31 33 -72 71 -93 85 -20 14 -68 54 -106 90 -81 77 -134 122 -197 170 -25 19 -63 49 -83 65 -20 17 -56 43 -79 59 -23 15 -44 34 -47 41 -3 8 -20 22 -38 31 -18 9 -39 26 -46 36 -8 11 -37 30 -65 44 -29 13 -77 41 -108 62 -31 20 -72 47 -90 59 -19 12 -53 36 -77 54 -55 41 -119 50 -146 20z"></path><path style="transform: scale(110%, 110%) translate(-4%, -6%);" id="p19VI5vKB7" d="M4400 7171 c-17 -33 -12 -68 15 -89 13 -11 29 -32 35 -46 23 -61 6 -205 -33 -281 -11 -22 -26 -69 -34 -105 -7 -35 -26 -85 -42 -110 -16 -25 -32 -58 -35 -75 -4 -16 -18 -41 -31 -55 -12 -14 -28 -41 -34 -60 -6 -19 -27 -57 -46 -84 -19 -27 -35 -55 -35 -62 0 -7 -9 -18 -20 -24 -11 -6 -29 -28 -39 -49 -11 -20 -27 -43 -35 -50 -9 -8 -16 -20 -16 -28 0 -21 71 -6 92 20 9 12 23 29 30 37 8 9 29 40 47 70 19 30 44 68 57 83 13 16 24 36 24 46 0 10 10 26 21 37 12 10 36 52 55 92 18 39 37 72 42 72 10 0 42 64 42 85 0 7 15 42 34 77 18 35 37 84 40 108 26 163 65 141 73 -39 3 -58 0 -150 -5 -204 -10 -105 -26 -137 -68 -137 -53 0 -54 -3 -54 -139 0 -162 -20 -296 -52 -347 -13 -22 -32 -60 -42 -86 -20 -54 -84 -138 -106 -138 -22 -1 -45 -21 -64 -58 -9 -18 -23 -35 -31 -38 -8 -3 -23 -21 -34 -40 -11 -19 -27 -34 -35 -34 -9 0 -25 -13 -37 -30 -30 -40 -66 -50 -173 -50 -58 0 -96 -4 -104 -12 -21 -21 -14 -53 16 -66 15 -6 47 -23 72 -38 36 -21 54 -25 90 -21 80 10 250 114 250 154 0 7 16 29 35 50 87 93 113 125 155 187 25 37 62 90 83 119 21 29 43 69 49 90 6 21 16 36 22 34 13 -4 28 -130 21 -167 -3 -14 1 -133 9 -265 11 -175 12 -301 6 -465 -7 -206 -10 -231 -33 -290 -14 -37 -31 -104 -37 -150 -8 -53 -22 -101 -36 -126 -13 -23 -29 -68 -35 -100 -6 -32 -19 -68 -30 -80 -23 -24 -38 -94 -21 -94 7 0 19 14 28 32 9 17 29 41 44 54 16 14 32 42 40 71 7 27 21 57 30 68 27 31 41 64 56 127 8 32 25 79 38 105 20 39 27 73 35 183 6 74 18 162 27 195 36 137 43 518 13 730 -31 218 -38 662 -14 790 27 136 29 219 10 295 -34 131 -47 153 -112 181 -29 12 -49 31 -67 62 -19 31 -41 52 -77 71 -28 14 -53 26 -55 26 -2 0 -8 -9 -14 -19z"></path><path style="transform: scale(110%, 110%) translate(-5%, -5%);" id="pN5BMLhdo" d="M5888 6595 c-15 -34 4 -174 36 -250 42 -103 48 -193 48 -720 1 -270 5 -498 10 -507 26 -52 50 4 83 197 26 150 27 173 22 365 -3 113 -10 220 -16 238 -5 19 -15 79 -21 135 -5 56 -15 149 -21 206 -6 57 -22 135 -35 173 -14 38 -29 92 -35 121 -7 29 -17 55 -23 59 -20 14 -36 8 -48 -17z"></path><path style="transform: scale(110%, 110%) translate(-4%, -5%);" id="p3FXXJBH2" d="M4326 5128 c-7 -13 -17 -52 -21 -88 -3 -36 -17 -92 -30 -125 -13 -33 -30 -88 -39 -121 -8 -34 -26 -79 -40 -99 -15 -21 -26 -44 -26 -52 0 -7 -27 -43 -60 -78 -50 -54 -60 -70 -60 -100 0 -30 3 -35 24 -35 42 0 76 19 94 51 9 17 27 43 38 58 12 14 25 37 29 51 4 14 16 36 27 49 10 13 28 56 40 95 12 39 33 86 46 104 23 31 26 45 30 149 3 82 1 121 -8 139 -17 30 -26 30 -44 2z"></path><path style="transform: scale(110%, 110%) translate(-5%, -4%);" id="pa6iUbHsN" d="M5416 4689 c-15 -17 -24 -39 -22 -48 9 -29 34 -194 41 -266 4 -38 16 -90 27 -115 10 -25 28 -87 39 -139 11 -52 30 -113 43 -135 13 -23 32 -79 42 -125 10 -46 28 -99 41 -118 12 -18 30 -47 38 -63 9 -17 22 -30 30 -30 23 0 19 54 -9 113 -15 32 -27 81 -31 127 -4 47 -16 95 -31 128 -16 34 -31 94 -40 165 -9 62 -25 136 -36 166 -10 30 -23 104 -29 164 -11 126 -16 153 -35 185 -19 30 -37 28 -68 -9z"></path><path style="transform: scale(110%, 110%) translate(-7%, -5%);" id="p61iJjWlR" d="M7340 4802 c0 -5 9 -17 20 -27 11 -10 24 -42 31 -77 7 -36 23 -72 40 -94 17 -22 30 -53 35 -82 3 -26 19 -74 34 -107 59 -123 64 -406 10 -557 -24 -69 -25 -99 -4 -140 64 -123 56 -259 -18 -302 -24 -15 -29 -23 -26 -49 2 -27 8 -33 31 -35 32 -4 77 36 146 129 34 44 41 61 41 100 0 38 -6 54 -35 90 -22 28 -39 63 -46 97 -11 54 -10 69 17 227 15 85 14 100 -6 260 -12 101 -29 186 -39 210 -10 22 -24 67 -30 99 -6 33 -24 80 -40 105 -16 25 -37 65 -46 89 -11 27 -28 48 -46 57 -31 16 -69 20 -69 7z"></path><path style="transform: scale(110%, 110%) translate(-5%, -54)" id="pKLaO3TVx" d="M6511 4619 c-11 -12 -24 -38 -27 -56 -4 -19 -17 -47 -29 -62 -13 -14 -32 -53 -43 -86 -10 -33 -29 -76 -41 -95 -34 -57 -29 -144 13 -239 19 -42 38 -94 42 -116 4 -22 15 -57 25 -77 25 -49 24 -113 -4 -168 -21 -42 -22 -58 -21 -243 0 -135 4 -201 12 -209 6 -6 15 -8 19 -4 5 4 8 97 9 206 1 167 4 203 18 222 9 13 23 33 32 46 10 13 19 51 22 93 4 59 2 74 -15 97 -26 36 -39 78 -62 197 -16 85 -17 104 -5 139 7 23 18 67 24 98 6 31 22 73 35 91 29 44 33 59 36 126 3 62 -9 74 -40 40z"></path><path style="transform: scale(110%, 110%) translate(-6%, -5%)" id="p1FopIqh9U" d="M7094 4205 c-14 -22 -16 -42 -11 -123 11 -181 -11 -258 -91 -312 l-34 -24 4 -123 c2 -77 8 -127 16 -135 9 -9 12 10 12 88 0 54 4 104 8 110 4 6 21 18 37 27 17 8 40 26 52 39 11 12 34 32 49 42 l27 19 -6 188 c-7 221 -21 267 -63 204z"></path><path style="transform: scale(110%, 110%) translate(-6%, -3%)" id="ph0vvrSBB" d="M6103 3113 c-41 -8 -44 -25 -17 -94 15 -35 34 -73 44 -84 26 -29 40 -60 40 -87 0 -33 87 -176 112 -184 32 -10 43 10 30 54 -7 22 -12 47 -12 56 0 10 -11 32 -25 50 -29 37 -32 81 -9 114 22 31 48 27 78 -12 14 -19 36 -36 48 -38 16 -2 25 -13 33 -40 6 -20 16 -43 23 -50 6 -6 12 -20 12 -31 0 -23 15 -52 51 -97 15 -19 35 -54 44 -77 10 -24 21 -43 27 -43 5 0 21 -28 37 -62 33 -74 48 -89 78 -77 45 17 39 144 -10 218 -12 19 -31 49 -42 66 -97 160 -231 304 -322 348 -27 13 -62 32 -78 44 -30 21 -101 34 -142 26z"></path><path style="" id="pZAOs5XsP" d="M6994 2360 c-18 -4 -47 -16 -65 -27 -19 -12 -48 -24 -65 -27 -44 -10 -69 -38 -55 -64 22 -41 71 -61 161 -64 114 -3 171 21 200 84 29 63 26 84 -11 97 -36 12 -117 13 -165 1z"></path><path style="" id="p17uykud4X" d="M6505 1492 c-44 -21 -87 -47 -95 -56 -12 -16 -12 -19 5 -29 33 -20 66 -27 156 -33 146 -11 232 22 212 82 -15 45 -51 64 -128 70 -66 5 -74 3 -150 -34z"></path><path style="" id="pTWXhKMsV" d="M6236 1221 c-16 -17 -16 -20 0 -35 9 -9 30 -23 47 -31 18 -8 43 -24 57 -35 35 -28 218 -80 283 -80 86 0 191 39 221 82 21 29 20 82 0 99 -13 11 -20 10 -42 -4 -86 -54 -110 -60 -232 -55 -111 5 -119 7 -182 41 -74 42 -125 48 -152 18z"></path><path id="pS851xJGm" d="M9792 7543 c-12 -33 -54 -239 -75 -370 -10 -62 -22 -102 -36 -119 -12 -15 -31 -59 -43 -98 -12 -39 -34 -87 -49 -106 -15 -19 -31 -51 -34 -72 -4 -20 -19 -48 -36 -64 -33 -32 -38 -73 -11 -97 17 -15 21 -15 54 8 38 26 53 55 67 127 4 25 18 58 30 73 11 15 21 35 21 44 0 34 22 91 44 118 29 35 53 110 59 186 4 35 16 79 31 108 23 43 26 60 26 153 0 57 -3 111 -6 120 -9 25 -30 19 -42 -11z"></path><path style="" id="pj3qS6qCx" d="M8430 6330 c-41 -10 -111 -27 -155 -39 -63 -17 -117 -22 -251 -25 -171 -3 -214 -12 -214 -41 0 -8 11 -22 25 -31 23 -15 41 -15 178 -5 83 6 193 11 242 11 60 0 99 5 118 15 16 8 52 22 80 30 28 8 61 22 74 30 26 18 31 60 7 69 -19 7 -12 8 -104 -14z"></path><path style="" id="p5OkPziXP" d="M7556 5782 c-12 -20 155 -166 232 -202 23 -10 42 -24 42 -29 0 -6 19 -20 43 -32 23 -12 53 -32 67 -45 14 -12 46 -32 71 -43 26 -12 52 -27 59 -36 6 -8 37 -24 68 -35 30 -12 68 -32 83 -45 20 -16 47 -26 86 -30 32 -3 83 -17 113 -30 76 -32 124 -40 160 -25 16 7 27 16 24 21 -10 17 -211 109 -256 117 -25 5 -59 18 -74 29 -16 12 -53 28 -82 37 -30 8 -69 29 -87 45 -18 16 -47 32 -63 36 -16 3 -42 19 -57 35 -16 17 -34 30 -39 30 -14 0 -152 92 -189 125 -15 14 -34 25 -42 25 -7 0 -27 12 -44 26 -33 27 -104 44 -115 26z"></path><path style="transform: scale(110%, 110%) translate(-4%, -6%)" id="pHROuixvJ" d="M8008 4628 c-21 -36 -13 -161 17 -278 28 -107 33 -161 56 -560 6 -113 13 -207 15 -209 23 -26 37 264 29 609 -7 317 -16 382 -59 428 -36 38 -41 39 -58 10z"></path></g></g></svg>